<svg xmlns="http://www.w3.org/2000/svg" viewBox="0 0 242.21 57.45"><defs><style>.cls-1{fill:#1d1d1b;}.cls-2{fill:#23b5b6;}.cls-3{fill:none;stroke:#23b5b6;stroke-linecap:round;stroke-miterlimit:10;stroke-width:4px;}.cls-4,.cls-5,.cls-6{fill:#fcc155;}.cls-5{opacity:0.75;}.cls-5,.cls-6{isolation:isolate;}.cls-6{opacity:0.5;}</style></defs><g id="Calque_2" data-name="Calque 2"><g id="Calque_1-2" data-name="Calque 1"><path class="cls-1" d="M83.45,41.51a.82.82,0,0,1-.8-.8,1.47,1.47,0,0,1,.08-.44l10.12-26a1.4,1.4,0,0,1,.42-.6,1.14,1.14,0,0,1,.74-.2h1.36a1.14,1.14,0,0,1,.74.2,1.4,1.4,0,0,1,.42.6l10.12,26a1.47,1.47,0,0,1,.08.44.82.82,0,0,1-.8.8h-.8a.78.78,0,0,1-.6-.22,2.1,2.1,0,0,1-.28-.38l-2.41-6.23a.29.29,0,0,0-.26-.17H87.8a.28.28,0,0,0-.26.17l-2.41,6.23a1,1,0,0,1-.26.38.87.87,0,0,1-.62.22ZM89,32.11h11.44a.28.28,0,0,0,.25-.38L95,17a.28.28,0,0,0-.52,0L88.71,31.73A.28.28,0,0,0,89,32.11Z"/><path class="cls-1" d="M111.85,41.51a.86.86,0,0,1-.64-.24.88.88,0,0,1-.24-.64V14a.83.83,0,0,1,.88-.88h.68a.83.83,0,0,1,.88.88V40.63a.88.88,0,0,1-.24.64.86.86,0,0,1-.64.24Z"/><path class="cls-1" d="M127.73,41.91a8,8,0,0,1-4.5-1.18,7,7,0,0,1-2.64-3.22,11.51,11.51,0,0,1-.86-4.56V21.59a.83.83,0,0,1,.88-.88h.68a.88.88,0,0,1,.64.24.86.86,0,0,1,.24.64V32.75q0,6.84,6,6.84a6,6,0,0,0,4.56-1.82,7,7,0,0,0,1.72-5V21.59a.83.83,0,0,1,.88-.88H136a.83.83,0,0,1,.88.88v19a.88.88,0,0,1-.24.64.86.86,0,0,1-.64.24h-.68a.86.86,0,0,1-.64-.24.88.88,0,0,1-.24-.64V38.75A9.06,9.06,0,0,1,131.83,41,8.18,8.18,0,0,1,127.73,41.91Z"/><path class="cls-1" d="M144.21,41.51a.86.86,0,0,1-.64-.24.88.88,0,0,1-.24-.64v-19a.83.83,0,0,1,.88-.88h.68a.88.88,0,0,1,.64.24.86.86,0,0,1,.24.64v1.88a8.55,8.55,0,0,1,2.62-2.28,9.63,9.63,0,0,1,8.64.3,7.21,7.21,0,0,1,2.72,3.2,11.11,11.11,0,0,1,.9,4.58V40.63a.83.83,0,0,1-.88.88h-.68a.86.86,0,0,1-.64-.24.88.88,0,0,1-.24-.64V29.47a7.45,7.45,0,0,0-1.56-5,5.65,5.65,0,0,0-4.56-1.82,6,6,0,0,0-4.58,1.82,7,7,0,0,0-1.74,5V40.63a.83.83,0,0,1-.88.88Z"/><path class="cls-1" d="M167.37,16.43a.86.86,0,0,1-.64-.24.88.88,0,0,1-.24-.64V14a.92.92,0,0,1,.24-.66.8.8,0,0,1,.64-.26h1.52a.89.89,0,0,1,.92.92v1.52a.85.85,0,0,1-.26.64,1,1,0,0,1-.66.24Zm.44,25.08a.86.86,0,0,1-.64-.24.88.88,0,0,1-.24-.64v-19a.83.83,0,0,1,.88-.88h.68a.88.88,0,0,1,.64.24.86.86,0,0,1,.24.64v19a.83.83,0,0,1-.88.88Z"/><path class="cls-1" d="M175.73,19.83a.48.48,0,0,1-.46-.24.89.89,0,0,1-.1-.6l.76-4.8a1.72,1.72,0,0,1,.3-.78.8.8,0,0,1,.7-.3h1.8a.53.53,0,0,1,.44.2.72.72,0,0,1,.16.44,1.87,1.87,0,0,1-.16.72L177.45,19a2.12,2.12,0,0,1-.38.62.94.94,0,0,1-.66.22Z"/><path class="cls-1" d="M189.49,41.91a10.31,10.31,0,0,1-3.58-.56A8.88,8.88,0,0,1,183.45,40,6.18,6.18,0,0,1,182,38.47a3.08,3.08,0,0,1-.5-1.16.64.64,0,0,1,.28-.66,1,1,0,0,1,.6-.22h.6a.93.93,0,0,1,.42.08,1.47,1.47,0,0,1,.46.44,10.33,10.33,0,0,0,1.2,1.3,4.86,4.86,0,0,0,1.74,1,8.34,8.34,0,0,0,2.66.36,7.57,7.57,0,0,0,4.07-1A3.09,3.09,0,0,0,195,36.13a2.65,2.65,0,0,0-.61-2,5,5,0,0,0-2.1-1.2,35.15,35.15,0,0,0-4-1.08,13.16,13.16,0,0,1-3.86-1.44,4.45,4.45,0,0,1-1.82-1.94,5.92,5.92,0,0,1-.48-2.38,5.2,5.2,0,0,1,.8-2.74,5.92,5.92,0,0,1,2.38-2.2,8.17,8.17,0,0,1,4-.86,9.45,9.45,0,0,1,3.34.52,7.46,7.46,0,0,1,2.26,1.26,5.86,5.86,0,0,1,1.3,1.46,3.08,3.08,0,0,1,.46,1.16.74.74,0,0,1-.24.64,1,1,0,0,1-.64.24h-.6a.89.89,0,0,1-.52-.14,1.31,1.31,0,0,1-.36-.38,6.83,6.83,0,0,0-1-1.2,4,4,0,0,0-1.5-.9,7.63,7.63,0,0,0-2.54-.34,5.39,5.39,0,0,0-3.56,1,3.09,3.09,0,0,0-1.16,2.5,2.56,2.56,0,0,0,.48,1.54,4.12,4.12,0,0,0,1.8,1.2A27.69,27.69,0,0,0,190.69,30a15.09,15.09,0,0,1,4,1.38,5.18,5.18,0,0,1,2.1,1.94,5.37,5.37,0,0,1,.62,2.64,5.28,5.28,0,0,1-.9,3,6.34,6.34,0,0,1-2.68,2.18A10.57,10.57,0,0,1,189.49,41.91Z"/><path class="cls-1" d="M210.49,41.91a9,9,0,0,1-4.82-1.2,7.82,7.82,0,0,1-3-3.28,11.2,11.2,0,0,1-1.1-4.64c0-.4,0-1,0-1.68s0-1.28,0-1.68a11.06,11.06,0,0,1,1.1-4.66,7.77,7.77,0,0,1,3-3.26,10.28,10.28,0,0,1,9.64,0,7.84,7.84,0,0,1,3,3.26,11.22,11.22,0,0,1,1.1,4.66c0,.4,0,1,0,1.68s0,1.28,0,1.68a11.35,11.35,0,0,1-1.1,4.64,7.89,7.89,0,0,1-3,3.28A9,9,0,0,1,210.49,41.91Zm0-2.32a6.12,6.12,0,0,0,4.56-1.8,7.57,7.57,0,0,0,1.88-5.2c0-.4,0-.9,0-1.48s0-1.08,0-1.48a7.51,7.51,0,0,0-1.88-5.22,6.73,6.73,0,0,0-9.12,0,7.46,7.46,0,0,0-1.88,5.22c0,.4,0,.89,0,1.48s0,1.08,0,1.48a7.52,7.52,0,0,0,1.88,5.2A6.09,6.09,0,0,0,210.49,39.59Z"/><path class="cls-1" d="M225.77,41.51a.86.86,0,0,1-.64-.24.88.88,0,0,1-.24-.64v-19a.83.83,0,0,1,.88-.88h.68a.88.88,0,0,1,.64.24.86.86,0,0,1,.24.64v1.88A8.55,8.55,0,0,1,230,21.19a9.63,9.63,0,0,1,8.64.3,7.21,7.21,0,0,1,2.72,3.2,11.11,11.11,0,0,1,.9,4.58V40.63a.83.83,0,0,1-.88.88h-.68a.86.86,0,0,1-.64-.24.88.88,0,0,1-.24-.64V29.47a7.45,7.45,0,0,0-1.56-5,5.65,5.65,0,0,0-4.56-1.82,6,6,0,0,0-4.58,1.82,7,7,0,0,0-1.74,5V40.63a.83.83,0,0,1-.88.88Z"/><g id="Calque_2-2" data-name="Calque 2"><g id="Calque_1-2-2" data-name="Calque 1-2"><path class="cls-2" d="M5.43,31.92c-7-7-7.35-20.12-.33-27.13S24.49-1.16,31.5,5.85"/><path class="cls-3" d="M9.7,33.45,36.6,6.55a15.57,15.57,0,0,1,22,0h0a15.58,15.58,0,0,1,0,22L31.7,55.45"/><rect class="cls-4" x="12.72" y="24.34" width="32.41" height="3.78" rx="1.89" transform="translate(-10.08 28.13) rotate(-45)"/><path class="cls-5" d="M47.2,18h0a1.88,1.88,0,0,1,0,2.67L23.42,44.49a1.9,1.9,0,0,1-2.68,0h0a1.9,1.9,0,0,1,0-2.67L44.52,18A1.9,1.9,0,0,1,47.2,18Z"/><path class="cls-6" d="M46.7,29.22h0a1.88,1.88,0,0,1,0,2.67L33.48,45.12a1.91,1.91,0,0,1-2.68,0h0a1.91,1.91,0,0,1,0-2.68L44,29.22A1.88,1.88,0,0,1,46.7,29.22Z"/><circle class="cls-4" cx="42.65" cy="12.5" r="1.97"/><circle class="cls-5" cx="49.37" cy="15.87" r="1.97"/><circle class="cls-6" cx="48.9" cy="27.04" r="1.97"/></g></g></g></g></svg>