<svg xmlns="http://www.w3.org/2000/svg" viewBox="0 0 122.07 107.65"><defs><style>.cls-1{fill:#23b5b6;}.cls-2{fill:none;stroke:#23b5b6;stroke-linecap:round;stroke-miterlimit:10;stroke-width:7.5px;}.cls-3,.cls-4,.cls-5{fill:#fcc155;}.cls-4{opacity:0.75;}.cls-4,.cls-5{isolation:isolate;}.cls-5{opacity:0.5;}</style></defs><g id="Calque_2" data-name="Calque 2"><g id="Calque_1-2" data-name="Calque 1"><g id="Calque_2-2" data-name="Calque 2"><g id="Calque_1-2-2" data-name="Calque 1-2"><path class="cls-1" d="M10.17,59.81C-2.95,46.7-3.61,22.11,9.55,9S45.88-2.17,59,11"/><path class="cls-2" d="M18.17,62.68l50.4-50.4a29.18,29.18,0,0,1,41.23,0h0a29.19,29.19,0,0,1,0,41.22L59.39,103.91"/><rect class="cls-3" x="23.83" y="45.61" width="60.73" height="7.08" rx="3.54" transform="translate(-18.88 52.72) rotate(-45)"/><path class="cls-4" d="M88.44,33.8h0a3.55,3.55,0,0,1,0,5L43.88,83.37a3.55,3.55,0,0,1-5,0h0a3.55,3.55,0,0,1,0-5L83.43,33.8A3.55,3.55,0,0,1,88.44,33.8Z"/><path class="cls-5" d="M87.51,54.75h0a3.55,3.55,0,0,1,0,5L62.73,84.54a3.55,3.55,0,0,1-5,0h0a3.55,3.55,0,0,1,0-5L82.5,54.75A3.55,3.55,0,0,1,87.51,54.75Z"/><circle class="cls-3" cx="79.91" cy="23.42" r="3.69"/><circle class="cls-4" cx="92.5" cy="29.74" r="3.69"/><circle class="cls-5" cx="91.62" cy="50.67" r="3.69"/></g></g></g></g></svg>